# xmcd
#
# Track frame offsets:
#	150
#	28710
#	44347
#	70302
#	87697
#	110092
#	132574
#	147511
#	172255
#	191104
#	205912
#	216454
#	236383
#	254593
#	283557
#
# Disc length: 4145 seconds
#
# Revision: 1
# Processed by: cddbd v1.5.2PL0 Copyright (c) Steve Scherf et al.
# Submitted via: audiograbber 1.83.01
#
DISCID=fe102f0f
DTITLE=вяусодайтукои ии [2001] - паяадосиайа тяацоудиа
DYEAR=2001
DGENRE=
TTITLE0=циобама
TTITLE1=йаясикалас
TTITLE2=лпаз-апостокг [суяе суяе]
TTITLE3=STRELA-тоно
TTITLE4=фаяало
TTITLE5=васапосеябийо
TTITLE6=лпазтоусйа
TTITLE7=яало яало
TTITLE8=лоуказбо
TTITLE9=то фезлпейийо тгс еудойиас
TTITLE10=саяайимо
TTITLE11=патяоумимо
TTITLE12=лалпо ии
TTITLE13=цйазмта
TTITLE14=лияйа
EXTD=
EXTT0=
EXTT1=
EXTT2=
EXTT3=
EXTT4=
EXTT5=
EXTT6=
EXTT7=
EXTT8=
EXTT9=
EXTT10=
EXTT11=
EXTT12=
EXTT13=
EXTT14=
PLAYORDER=
